<?xml version="1.0" encoding="UTF-8" standalone="no"?>
<!-- Created with Inkscape (http://www.inkscape.org/) -->

<svg
   width="210mm"
   height="297mm"
   viewBox="0 0 210 297"
   version="1.1"
   id="svg13395"
   inkscape:version="1.1.1 (3bf5ae0d25, 2021-09-20)"
   sodipodi:docname="logo.svg"
   xmlns:inkscape="http://www.inkscape.org/namespaces/inkscape"
   xmlns:sodipodi="http://sodipodi.sourceforge.net/DTD/sodipodi-0.dtd"
   xmlns="http://www.w3.org/2000/svg"
   xmlns:svg="http://www.w3.org/2000/svg">
  <sodipodi:namedview
     id="namedview13397"
     pagecolor="#ffffff"
     bordercolor="#666666"
     borderopacity="1.0"
     inkscape:pageshadow="2"
     inkscape:pageopacity="0.0"
     inkscape:pagecheckerboard="0"
     inkscape:document-units="mm"
     showgrid="false"
     inkscape:zoom="0.64338288"
     inkscape:cx="-201.27984"
     inkscape:cy="450.74249"
     inkscape:window-width="1920"
     inkscape:window-height="1011"
     inkscape:window-x="0"
     inkscape:window-y="32"
     inkscape:window-maximized="1"
     inkscape:current-layer="g14822" />
  <defs
     id="defs13392" />
  <g
     inkscape:label="Calque 1"
     inkscape:groupmode="layer"
     id="layer1">
    <g
       id="g14822"
       inkscape:export-filename="/home/thibaud/Documents/angularWorkspace/cat_angular_seo/logo.png"
       inkscape:export-xdpi="96"
       inkscape:export-ydpi="96">
      <g
         id="g935"
         transform="matrix(-1,0,0,1,231.70143,0)"
         inkscape:export-filename="/home/thibaud/Documents/angularWorkspace/cat_angular_seo/src/assets/logo.png"
         inkscape:export-xdpi="96"
         inkscape:export-ydpi="96">
        <ellipse
           style="fill:#e7e00d;fill-opacity:1;stroke:#000000;stroke-width:3.09526;stroke-miterlimit:4;stroke-dasharray:none"
           id="path14686"
           cx="93.095383"
           cy="105.06735"
           rx="35.719826"
           ry="34.125015" />
        <path
           style="fill:#000000;stroke-width:0.264583"
           d="m 70.49115,200.92162 c -1.383086,-0.63786 -2.674974,-2.13233 -3.064715,-3.54529 -0.660293,-2.39382 0.550523,-6.20617 2.717889,-8.55748 1.101233,-1.19469 4.322946,-3.01817 5.345582,-3.02557 1.287291,-0.009 1.293186,-0.0435 1.14494,-6.64547 -0.07636,-3.40053 -0.269989,-6.71855 -0.430292,-7.37339 -0.160301,-0.65485 -0.351441,-1.45513 -0.424757,-1.7784 l -0.1333,-0.58778 -12.366118,-0.0737 -12.36613,-0.0737 -0.89072,-0.63528 c -1.269,-0.90507 -1.87592,-2.4122 -1.87512,-4.65638 3.6e-4,-1.01865 0.12103,-2.37421 0.26815,-3.01237 0.92604,-4.01682 4.32476,-7.33533 8.3977,-8.19951 0.81832,-0.17364 4.07849,-0.2975 7.83034,-0.2975 h 6.428261 l 0.168138,-4.03489 c 0.36605,-8.78429 2.724699,-15.92209 7.829768,-23.69462 1.176055,-1.79055 2.138278,-3.29866 2.138278,-3.35135 0,-0.0527 -1.398984,-0.89643 -3.108854,-1.875 -3.967536,-2.27063 -4.762854,-2.9109 -5.84236,-4.70337 -0.722871,-1.2003 -0.996535,-2.12006 -1.521354,-5.11313 -0.829443,-4.73036 -0.822124,-5.24291 0.08767,-6.13975 0.400182,-0.39448 2.573073,-1.75257 4.828645,-3.01798 2.255573,-1.265414 4.874948,-2.964254 5.820833,-3.775194 3.089979,-2.64915 6.476459,-3.80324 10.134139,-3.45365 1.04742,0.10011 2.23855,0.20612 2.64694,0.23558 0.69926,0.0504 0.88999,-0.20864 3.27187,-4.44435 1.39113,-2.473857 2.710437,-4.70395 2.931797,-4.955766 0.64445,-0.733105 2.12146,-0.885673 3.15995,-0.326409 1.41285,0.760873 4.68588,4.375235 6.01862,6.646275 0.66989,1.14151 1.59045,3.20657 2.0457,4.58902 1.31639,3.99746 1.31256,6.919834 -0.0241,18.451404 -0.5944,5.1278 -1.08073,9.55883 -1.08073,9.84674 0,0.71905 3.57691,4.92158 6.03544,7.09109 3.6752,3.24313 3.75415,3.33823 3.75415,4.52163 0,1.59188 -0.91914,2.55476 -2.4387,2.55476 -1.04618,0 -1.37431,-0.17742 -3.3023,-1.7855 -3.5931,-2.99691 -8.57957,-8.64249 -9.28971,-10.51762 -0.17788,-0.4697 0.0891,-3.57619 0.92077,-10.71563 1.24979,-10.72821 1.41072,-13.61959 0.89831,-16.139584 -0.37412,-1.83988 -2.30284,-5.93988 -3.41142,-7.25187 l -0.76205,-0.90188 -2.54005,4.49187 c -3.164347,5.595914 -3.420687,5.763504 -6.767697,4.42449 -1.46054,-0.58431 -2.02229,-0.67359 -3.59263,-0.571 -2.2357,0.14607 -3.69833,0.82076 -5.56556,2.567344 -0.72761,0.68058 -2.989792,2.17167 -5.027084,3.31353 -2.037291,1.14186 -3.749198,2.11333 -3.804239,2.15883 -0.190567,0.15754 0.57005,4.47153 0.904515,5.13015 0.564441,1.11149 1.360405,1.65654 7.529928,5.1563 3.27422,1.85736 6.28055,3.72108 6.68073,4.14161 1.01286,1.06436 0.99524,2.38142 -0.0458,3.42244 -0.94269,0.9427 -2.36295,1.03696 -3.66476,0.24324 -0.47646,-0.29049 -0.96895,-0.52817 -1.09442,-0.52817 -0.34305,0 -4.310624,6.18175 -5.518979,8.59895 -2.446126,4.89324 -3.722814,10.00146 -3.961394,15.85012 l -0.150085,3.67927 1.01102,-0.16407 c 1.867252,-0.30301 3.887496,-1.52151 5.865728,-3.53789 1.75045,-1.7842 1.98592,-1.9368 2.98859,-1.9368 1.2423,0 2.24311,0.78865 2.54938,2.00894 0.42367,1.68802 -2.69354,5.23328 -6.24001,7.0969 -3.508907,1.84387 -4.728676,2.00647 -15.064928,2.00814 -5.569806,7.9e-4 -9.543126,0.1101 -10.151366,0.27901 -2.06104,0.57236 -3.87706,2.94294 -3.88956,5.07732 l -0.006,0.99219 h 12.406186 c 10.1635,0 12.801753,-0.075 14.594387,-0.41509 4.120591,-0.78167 7.952101,-2.48623 11.379051,-5.06232 1.97966,-1.48813 3.21981,-1.67031 4.32194,-0.63491 1.5047,1.41359 1.12326,3.14069 -1.05724,4.78698 l -1.42766,1.0779 v 2.32872 2.32873 l 1.65364,1.70992 c 5.266487,5.44569 12.812777,10.22629 19.972087,12.65237 2.35045,0.7965 9.08439,2.46409 9.25626,2.29223 0.0459,-0.0459 -0.27777,-0.85528 -0.71923,-1.79866 -0.87637,-1.87277 -1.58777,-5.06711 -1.58777,-7.12947 0,-4.05442 1.91832,-8.77416 4.73719,-11.65516 1.59747,-1.63267 1.86558,-1.80416 2.82079,-1.80416 1.3153,0 2.10519,0.53505 2.48388,1.6825 0.39062,1.18361 0.0556,2.00715 -1.51674,3.72897 -3.52946,3.86486 -4.20312,9.39936 -1.70339,13.99435 0.39539,0.72681 1.54963,2.13764 2.56496,3.13519 1.6867,1.65713 1.84608,1.90686 1.84608,2.89259 0,0.88274 -0.156,1.21827 -0.85806,1.84556 l -0.85806,0.76667 h -4.59565 c -3.58408,0 -4.89905,0.098 -5.97406,0.44518 -1.62192,0.52382 -3.76075,2.33286 -4.52174,3.82452 l -0.52137,1.02197 h 12.92137 c 7.85765,0 13.53661,-0.10895 14.49131,-0.278 4.40323,-0.77973 8.42899,-2.80675 11.64898,-5.86543 7.71719,-7.33058 9.23797,-18.56899 3.76747,-27.84127 -1.26511,-2.1443 -4.67197,-5.66165 -6.88284,-7.10604 -0.82665,-0.54006 -4.51759,-2.32538 -8.20208,-3.96737 -6.38361,-2.84485 -6.72212,-3.0321 -7.18841,-3.97625 -0.57742,-1.16917 -0.43157,-2.05941 0.48806,-2.97905 1.1002,-1.1002 2.0755,-0.88463 8.06133,1.78179 8.55666,3.81161 10.36828,4.83091 13.06959,7.35353 l 1.2859,1.20083 0.90449,-1.05564 c 3.82845,-4.4682 6.44558,-11.63238 6.44558,-17.64422 0,-4.61653 -1.24657,-7.55219 -4.57487,-10.77377 -4.72981,-4.57816 -7.01531,-8.98725 -7.55465,-14.57411 -0.9127,-9.4543 4.08559,-18.313904 12.57275,-22.285524 2.33753,-1.09387 4.81915,-1.15012 6.9773,-0.15815 2.01857,0.92781 2.93581,1.78517 3.96999,3.71081 0.80118,1.49181 0.89607,1.88996 0.90179,3.78391 0.0104,3.45294 -1.31766,5.612314 -4.64806,7.557364 -2.76312,1.61375 -3.86843,3.91617 -3.1539,6.56973 0.24272,0.9014 0.90217,1.77214 3.02793,3.99808 3.03614,3.17923 4.65756,5.45996 6.22218,8.75225 2.16131,4.54785 3.11245,9.51977 2.83023,14.79444 -0.63243,11.82015 -4.88084,21.4304 -13.35975,30.2209 l -2.74218,2.84296 0.0433,3.13981 c 0.18985,13.7633 -9.47386,25.34443 -23.10245,27.68631 -1.91726,0.32946 -5.09866,0.40378 -17.28442,0.40378 H 112.1244 l -0.7734,-0.7734 c -0.70531,-0.70531 -0.7729,-0.93242 -0.76782,-2.57969 0.009,-3.04814 1.40429,-6.19239 3.80543,-8.578 l 0.95707,-0.95087 -3.008,-1.1147 c -5.74075,-2.12739 -12.04793,-5.76626 -16.508427,-9.5244 -1.05383,-0.8879 -1.97115,-1.61436 -2.03848,-1.61436 -0.0673,0 -0.15759,4.43508 -0.2006,9.85573 -0.076,9.57472 -0.0948,9.88678 -0.66085,10.94488 -0.89535,1.67364 -1.75684,2.56722 -3.29805,3.42095 l -1.41095,0.78157 -8.334374,0.0677 c -7.633809,0.062 -8.423526,0.0265 -9.394977,-0.42149 z m 17.164103,-5.50308 0.69754,-0.69754 V 180.75265 166.7843 l -2.05052,0.74479 c -1.12779,0.40963 -2.7649,0.89777 -3.63802,1.08475 -0.873126,0.18698 -1.605273,0.34953 -1.626992,0.36121 -0.02172,0.0117 0.138104,0.85468 0.355168,1.87332 0.546346,2.56391 0.815454,17.25464 0.33723,18.40919 -0.455596,1.0999 -1.501208,1.56685 -3.50857,1.56685 -2.880725,0 -5.179885,1.75658 -5.627526,4.29948 l -0.17466,0.99219 h 7.269409 7.269401 z m 80.149297,-33.23527 c 6.47576,-7.25654 10.03213,-15.94091 10.42875,-25.46615 0.32639,-7.83874 -2.04245,-13.85131 -7.74968,-19.67023 -1.7568,-1.79119 -2.9536,-3.26629 -3.41568,-4.20999 -2.539,-5.18531 -0.64057,-11.20564 4.47738,-14.198724 1.82628,-1.06805 2.53246,-1.96267 2.53246,-3.20824 0,-1.02858 -0.77662,-2.16835 -1.81238,-2.65985 -1.19434,-0.56675 -2.44226,-0.21064 -4.84801,1.38344 -7.62263,5.05083 -9.76992,15.292554 -4.82984,23.036424 0.53875,0.84453 2.07246,2.60904 3.40825,3.92113 4.18186,4.10768 5.92952,7.8705 6.16583,13.27545 0.34915,7.98542 -2.82217,17.01455 -7.99798,22.7713 l -1.17294,1.3046 1.37635,2.79861 c 0.75699,1.53924 1.45494,2.80804 1.551,2.81954 0.0961,0.0115 0.94498,-0.84228 1.88649,-1.89731 z m -41.00713,-18.7714 c -0.79527,-0.38424 -1.49409,-1.92795 -1.27412,-2.81456 0.23755,-0.95746 1.10364,-1.8339 2.00864,-2.03268 0.97454,-0.21404 2.45998,0.49027 2.85293,1.35269 1.06421,2.33568 -1.27328,4.61263 -3.58745,3.49455 z M 88.256583,107.84146 c -0.53365,-0.53365 -0.69754,-0.96032 -0.69754,-1.816 0,-1.55738 0.95616,-2.51354 2.51354,-2.51354 1.55738,0 2.51354,0.95616 2.51354,2.51354 0,1.55738 -0.95616,2.51354 -2.51354,2.51354 -0.85568,0 -1.28235,-0.16389 -1.816,-0.69754 z"
           id="path13876" />
      </g>
    </g>
  </g>
</svg>
